<svg width="137" height="24" viewBox="0 0 137 24" fill="none" xmlns="http://www.w3.org/2000/svg">
<path d="M72.3352 22.6631C70.3488 22.6631 68.8094 21.9878 67.7169 20.6371C66.6244 19.2665 66.0781 17.2006 66.0781 14.4396C66.0781 11.7381 66.6244 9.70209 67.7169 8.33149C68.8292 6.9609 70.2992 6.2756 72.1266 6.2756C73.1794 6.2756 74.1031 6.46431 74.8976 6.84172C75.712 7.21913 76.3477 7.75545 76.8045 8.45068H76.9833V0.763428H81.0653V22.3056H77.5792L77.311 20.2497H77.1025C76.6059 21.0443 75.9404 21.6501 75.1062 22.0672C74.2719 22.4645 73.3482 22.6631 72.3352 22.6631ZM73.6462 19.1175C75.8709 19.1175 76.9833 17.6575 76.9833 14.7375V14.2608C76.9833 11.3011 75.8709 9.82127 73.6462 9.82127C72.4345 9.82127 71.5704 10.1887 71.054 10.9237C70.5375 11.6388 70.2793 12.7313 70.2793 14.2012V14.7375C70.2793 16.2074 70.5375 17.3099 71.054 18.0448C71.5704 18.7599 72.4345 19.1175 73.6462 19.1175Z" fill="white"/>
<path d="M53.9696 22.6631C52.3606 22.6631 51.0893 22.2261 50.1558 21.3521C49.242 20.478 48.7852 19.0777 48.7852 17.1509V6.63306H52.8671V16.2868C52.8671 17.2601 53.0956 17.9653 53.5524 18.4023C54.0093 18.8393 54.6847 19.0578 55.5785 19.0578C56.4923 19.0578 57.2471 18.74 57.843 18.1043C58.4588 17.4488 58.7667 16.6444 58.7667 15.6909V6.63306H62.8486V22.3055H59.3626L59.0646 20.2496H58.8561C57.5848 21.8586 55.9559 22.6631 53.9696 22.6631Z" fill="white"/>
<path d="M37.6312 22.6632C34.9496 22.6632 32.9533 21.9977 31.6423 20.6669C30.3313 19.336 29.6758 17.2702 29.6758 14.4694C29.6758 11.6686 30.3313 9.6028 31.6423 8.27194C32.9533 6.94107 34.9496 6.27563 37.6312 6.27563C40.3128 6.27563 42.3091 6.94107 43.6201 8.27194C44.951 9.6028 45.6164 11.6686 45.6164 14.4694C45.6164 17.2702 44.951 19.336 43.6201 20.6669C42.3091 21.9977 40.3128 22.6632 37.6312 22.6632ZM37.6312 19.3261C38.9621 19.3261 39.9254 18.9487 40.5214 18.1939C41.1173 17.4192 41.4152 16.2571 41.4152 14.7078V14.231C41.4152 12.6817 41.1173 11.5296 40.5214 10.7748C39.9254 10.0001 38.9621 9.61274 37.6312 9.61274C36.3003 9.61274 35.3369 10.0001 34.741 10.7748C34.165 11.5296 33.877 12.6817 33.877 14.231V14.7078C33.877 16.2571 34.165 17.4192 34.741 18.1939C35.3369 18.9487 36.3003 19.3261 37.6312 19.3261Z" fill="white"/>
<path d="M22.3672 0.763428H26.4492V22.3056H22.3672V0.763428Z" fill="white"/>
<path d="M9.89212 22.6631C3.29737 22.6631 0 19.1373 0 12.0857C0 8.54998 0.864071 5.90811 2.59221 4.1601C4.32035 2.39223 6.75365 1.5083 9.89212 1.5083C11.6203 1.5083 13.1696 1.80626 14.5402 2.40217C15.9307 2.97821 17.0232 3.87208 17.8177 5.08377C18.6321 6.27559 19.0393 7.73557 19.0393 9.46371H14.5998C14.5998 8.13284 14.1727 7.09 13.3186 6.33518C12.4645 5.56049 11.3521 5.17315 9.9815 5.17315C8.11432 5.17315 6.72386 5.72933 5.81013 6.8417C4.8964 7.95407 4.43954 9.55309 4.43954 11.6388V12.5326C4.43954 16.8431 6.28686 18.9983 9.9815 18.9983C11.4316 18.9983 12.5836 18.6209 13.4378 17.866C14.3118 17.1112 14.7488 16.0684 14.7488 14.7375H19.0393C19.0393 16.4855 18.6421 17.9554 17.8475 19.1473C17.053 20.3192 15.9704 21.2031 14.5998 21.7991C13.2292 22.3751 11.66 22.6631 9.89212 22.6631Z" fill="white"/>
<path d="M127.938 6.63318H131.424L131.751 9.1658H131.96C132.298 8.27194 132.735 7.56678 133.271 7.05032C133.807 6.53386 134.512 6.27563 135.386 6.27563C135.962 6.27563 136.479 6.36502 136.936 6.54379V10.3576H135.804C134.473 10.3576 133.509 10.7251 132.913 11.4601C132.317 12.1752 132.019 13.2677 132.019 14.7376V22.3056H127.938V6.63318Z" fill="white"/>
<path fill-rule="evenodd" clip-rule="evenodd" d="M99.7735 12.9944C99.7735 15.8227 97.4807 18.1155 94.6524 18.1155C91.8241 18.1155 89.5313 15.8227 89.5313 12.9944C89.5313 10.1661 91.8241 7.8733 94.6524 7.8733C97.4807 7.8733 99.7735 10.1661 99.7735 12.9944ZM104.662 15.1742C103.663 19.7837 99.561 23.2366 94.6524 23.2366C88.9958 23.2366 84.4102 18.651 84.4102 12.9944C84.4102 7.33779 88.9958 2.7522 94.6524 2.7522C99.561 2.7522 103.663 6.20517 104.662 10.8146C105.661 6.20517 109.763 2.7522 114.672 2.7522C120.329 2.7522 124.914 7.33779 124.914 12.9944C124.914 18.651 120.329 23.2366 114.672 23.2366C109.763 23.2366 105.661 19.7837 104.662 15.1742ZM119.793 12.9944C119.793 15.8227 117.5 18.1155 114.672 18.1155C111.844 18.1155 109.551 15.8227 109.551 12.9944C109.551 10.1661 111.844 7.8733 114.672 7.8733C117.5 7.8733 119.793 10.1661 119.793 12.9944Z" fill="url(#paint0_linear_430_11679)"/>
<defs>
<linearGradient id="paint0_linear_430_11679" x1="84.4102" y1="12.9944" x2="124.914" y2="12.9944" gradientUnits="userSpaceOnUse">
<stop stop-color="#145BF0"/>
<stop offset="1" stop-color="#1DC66D"/>
</linearGradient>
</defs>
</svg>
